<svg width="27" height="23" viewBox="0 0 27 23" fill="none" xmlns="http://www.w3.org/2000/svg">
<path d="M13.5004 0.625C20.0158 0.625 25.4364 5.31333 26.5734 11.5C25.4376 17.6867 20.0158 22.375 13.5004 22.375C6.98512 22.375 1.56453 17.6867 0.42749 11.5C1.56332 5.31333 6.98512 0.625 13.5004 0.625ZM13.5004 19.9583C15.9648 19.9578 18.356 19.1207 20.2826 17.5842C22.2093 16.0476 23.5573 13.9025 24.106 11.5C23.5553 9.09941 22.2064 6.95667 20.28 5.42211C18.3535 3.88756 15.9634 3.05197 13.5004 3.05197C11.0375 3.05197 8.64741 3.88756 6.72094 5.42211C4.79448 6.95667 3.44563 9.09941 2.89491 11.5C3.44361 13.9025 4.7916 16.0476 6.71825 17.5842C8.6449 19.1207 11.0361 19.9578 13.5004 19.9583ZM13.5004 16.9375C12.0583 16.9375 10.6753 16.3646 9.65556 15.3449C8.63583 14.3252 8.06295 12.9421 8.06295 11.5C8.06295 10.0579 8.63583 8.67484 9.65556 7.65511C10.6753 6.63538 12.0583 6.0625 13.5004 6.0625C14.9426 6.0625 16.3256 6.63538 17.3453 7.65511C18.3651 8.67484 18.938 10.0579 18.938 11.5C18.938 12.9421 18.3651 14.3252 17.3453 15.3449C16.3256 16.3646 14.9426 16.9375 13.5004 16.9375ZM13.5004 14.5208C14.3016 14.5208 15.07 14.2026 15.6365 13.6361C16.203 13.0695 16.5213 12.3012 16.5213 11.5C16.5213 10.6988 16.203 9.93046 15.6365 9.36395C15.07 8.79743 14.3016 8.47917 13.5004 8.47917C12.6993 8.47917 11.9309 8.79743 11.3644 9.36395C10.7979 9.93046 10.4796 10.6988 10.4796 11.5C10.4796 12.3012 10.7979 13.0695 11.3644 13.6361C11.9309 14.2026 12.6993 14.5208 13.5004 14.5208Z" fill="#EDFBFB"/>
</svg>
