<svg width="24" height="25" viewBox="0 0 24 25" fill="none" xmlns="http://www.w3.org/2000/svg">
<path d="M1.30286 7.112C2.32164 5.12389 3.88454 3.45261 5.81686 2.28496C7.74917 1.11731 9.97477 0.4993 12.2449 0.500001C15.5449 0.500001 18.3171 1.688 20.4367 3.626L16.9261 7.0676C15.6563 5.8784 14.0424 5.2724 12.2449 5.2724C9.0551 5.2724 6.3551 7.3844 5.39388 10.22C5.14898 10.94 5.00939 11.708 5.00939 12.5C5.00939 13.292 5.14898 14.06 5.39388 14.78C6.35633 17.6168 9.0551 19.7276 12.2449 19.7276C13.8918 19.7276 15.2939 19.3016 16.391 18.5816C17.0271 18.1712 17.5716 17.6387 17.9917 17.0162C18.4118 16.3937 18.6987 15.6942 18.8351 14.96H12.2449V10.3184H23.7771C23.9216 11.1032 24 11.9216 24 12.7724C24 16.4276 22.6653 19.5044 20.3486 21.5924C18.3233 23.426 15.551 24.5 12.2449 24.5C10.6367 24.5006 9.04413 24.1907 7.55822 23.5878C6.07231 22.985 4.72218 22.1011 3.58501 20.9867C2.44784 19.8723 1.54591 18.5491 0.930777 17.0929C0.315642 15.6368 -0.000642687 14.076 9.80466e-07 12.5C9.80466e-07 10.5632 0.472654 8.732 1.30286 7.112Z" fill="#EDFBFB"/>
</svg>
