<svg width="24" height="25" viewBox="0 0 24 25" fill="none" xmlns="http://www.w3.org/2000/svg">
<g clip-path="url(#clip0_592_1004)">
<path d="M12 18.9065C10.8911 19.558 9.62977 19.905 8.34366 19.9124C7.05755 19.9197 5.79232 19.5872 4.67606 18.9483C3.55979 18.3095 2.63212 17.3871 1.98693 16.2745C1.34174 15.1619 1.00195 13.8986 1.00195 12.6125C1.00195 11.3264 1.34174 10.0631 1.98693 8.95047C2.63212 7.83787 3.55979 6.91548 4.67606 6.27666C5.79232 5.63784 7.05755 5.30527 8.34366 5.31262C9.62977 5.31997 10.8911 5.66697 12 6.3185C13.1089 5.66697 14.3702 5.31997 15.6563 5.31262C16.9425 5.30527 18.2077 5.63784 19.3239 6.27666C20.4402 6.91548 21.3679 7.83787 22.0131 8.95047C22.6583 10.0631 22.9981 11.3264 22.9981 12.6125C22.9981 13.8986 22.6583 15.1619 22.0131 16.2745C21.3679 17.3871 20.4402 18.3095 19.3239 18.9483C18.2077 19.5872 16.9425 19.9197 15.6563 19.9124C14.3702 19.905 13.1089 19.558 12 18.9065ZM13.702 17.5225C14.5067 17.8495 15.3794 17.9738 16.2434 17.8843C17.1074 17.7948 17.9361 17.4944 18.6567 17.0094C19.3773 16.5245 19.9676 15.8698 20.3758 15.1031C20.784 14.3364 20.9975 13.4811 20.9975 12.6125C20.9975 11.7439 20.784 10.8886 20.3758 10.1219C19.9676 9.35519 19.3773 8.70055 18.6567 8.21557C17.9361 7.73059 17.1074 7.43016 16.2434 7.34069C15.3794 7.25122 14.5067 7.37547 13.702 7.7025C14.9255 9.04477 15.6026 10.7963 15.6 12.6125C15.6 14.5025 14.881 16.2265 13.702 17.5225ZM10.298 7.7025C9.49332 7.37547 8.6206 7.25122 7.75662 7.34069C6.89265 7.43016 6.0639 7.73059 5.34331 8.21557C4.62271 8.70055 4.03236 9.35519 3.62418 10.1219C3.21601 10.8886 3.00253 11.7439 3.00253 12.6125C3.00253 13.4811 3.21601 14.3364 3.62418 15.1031C4.03236 15.8698 4.62271 16.5245 5.34331 17.0094C6.0639 17.4944 6.89265 17.7948 7.75662 17.8843C8.6206 17.9738 9.49332 17.8495 10.298 17.5225C9.07446 16.1802 8.3974 14.4287 8.4 12.6125C8.4 10.7225 9.119 8.9985 10.298 7.7025ZM12 8.8175C11.4928 9.31074 11.0899 9.9008 10.815 10.5527C10.5402 11.2046 10.3991 11.905 10.4 12.6125C10.4 14.1005 11.013 15.4445 12 16.4075C12.5072 15.9143 12.9101 15.3242 13.185 14.6723C13.4598 14.0204 13.6009 13.32 13.6 12.6125C13.6009 11.905 13.4598 11.2046 13.185 10.5527C12.9101 9.9008 12.5072 9.31074 12 8.8175Z" fill="white"/>
</g>
<defs>
<clipPath id="clip0_592_1004">
<rect width="24" height="24" fill="white" transform="translate(0 0.612305)"/>
</clipPath>
</defs>
</svg>
