<svg width="24" height="25" viewBox="0 0 24 25" fill="none" xmlns="http://www.w3.org/2000/svg">
<g clip-path="url(#clip0_592_1003)">
<path d="M22.222 16.3804L21.997 15.2554H19.483L19.083 16.3724L17.068 16.3764C18.0273 14.0696 18.9886 11.7636 19.952 9.45842C20.116 9.06742 20.407 8.86842 20.836 8.87042C21.164 8.87342 21.699 8.87342 22.442 8.87142L24 16.3774L22.222 16.3804ZM20.049 13.7144H21.669L21.064 10.8944L20.049 13.7144ZM7.06 8.86942L9.086 8.87142L5.954 16.3814L3.903 16.3794C3.38725 14.3957 2.87791 12.4104 2.375 10.4234C2.275 10.0274 2.077 9.75042 1.696 9.61942C1.357 9.50242 0.792 9.32242 0 9.07742V8.87242H3.237C3.797 8.87242 4.124 9.14342 4.229 9.69942C4.335 10.2564 4.601 11.6744 5.029 13.9534L7.06 8.86942ZM11.87 8.87142L10.268 16.3794L8.34 16.3774L9.94 8.86942L11.87 8.87142ZM15.78 8.73242C16.357 8.73242 17.084 8.91242 17.502 9.07742L17.164 10.6344C16.786 10.4824 16.164 10.2774 15.641 10.2844C14.881 10.2974 14.411 10.6164 14.411 10.9224C14.411 11.4204 15.227 11.6714 16.067 12.2154C17.026 12.8354 17.152 13.3924 17.14 13.9974C17.127 15.2534 16.067 16.4924 13.831 16.4924C12.811 16.4774 12.443 16.3914 11.611 16.0964L11.963 14.4714C12.81 14.8264 13.169 14.9394 13.893 14.9394C14.556 14.9394 15.125 14.6714 15.13 14.2044C15.134 13.8724 14.93 13.7074 14.186 13.2974C13.442 12.8864 12.398 12.3174 12.412 11.1754C12.429 9.71342 13.814 8.73242 15.781 8.73242H15.78Z" fill="white"/>
</g>
<defs>
<clipPath id="clip0_592_1003">
<rect width="24" height="24" fill="white" transform="translate(0 0.612305)"/>
</clipPath>
</defs>
</svg>
